<svg width="14" height="9" viewBox="0 0 14 9" fill="none" xmlns="http://www.w3.org/2000/svg">
<path d="M13.7831 7.62842C13.8456 7.53467 13.8768 7.44092 13.8768 7.34717C13.8768 7.22217 13.8456 7.15967 13.7831 7.09717L7.25184 0.534668C7.15809 0.472168 7.06434 0.440918 6.97059 0.440918C6.84559 0.440918 6.78309 0.472168 6.72059 0.534668L0.158085 7.09717C0.0955853 7.15967 0.0643353 7.22217 0.0643353 7.34717C0.0643353 7.44092 0.0955853 7.53467 0.158085 7.62842L0.783085 8.25342C0.845585 8.31592 0.908085 8.34717 1.03309 8.34717C1.12684 8.34717 1.22059 8.31592 1.31434 8.25342L6.97059 2.59717L12.6268 8.25342C12.6893 8.31592 12.7831 8.34717 12.9081 8.34717C13.0018 8.34717 13.0956 8.31592 13.1581 8.25342L13.7831 7.62842Z" fill="#BBCDD9"/>
</svg>
