<svg width="14" height="9" viewBox="0 0 14 9" fill="none" xmlns="http://www.w3.org/2000/svg">
<path d="M0.158383 1.35107C0.0958827 1.44482 0.0646327 1.53857 0.0646327 1.63232C0.0646327 1.75732 0.0958827 1.81982 0.158383 1.88232L6.68963 8.44482C6.78338 8.50732 6.87713 8.53857 6.97088 8.53857C7.09588 8.53857 7.15838 8.50732 7.22088 8.44482L13.7834 1.88232C13.8459 1.81982 13.8771 1.75732 13.8771 1.63232C13.8771 1.53857 13.8459 1.44482 13.7834 1.35107L13.1584 0.726074C13.0959 0.663574 13.0334 0.632324 12.9084 0.632324C12.8146 0.632324 12.7209 0.663574 12.6271 0.726074L6.97088 6.38232L1.31463 0.726074C1.25213 0.663574 1.15838 0.632324 1.03338 0.632324C0.939633 0.632324 0.845883 0.663574 0.783383 0.726074L0.158383 1.35107Z" fill="#BBCDD9"/>
</svg>
